<svg xmlns="http://www.w3.org/2000/svg" fill="none" viewBox="0 0 36 36">
  <path fill="#4c1d95" d="M22.25 4h-8.5a1 1 0 0 0-.96.73l-5.54 19.4a.5.5 0 0 0 .62.62l5.05-1.44a2 2 0 0 0 1.38-1.4l3.22-11.66a.5.5 0 0 1 .96 0l3.22 11.67a2 2 0 0 0 1.38 1.39l5.05 1.44a.5.5 0 0 0 .62-.62l-5.54-19.4a1 1 0 0 0-.96-.73Z"/>
  <path fill="url(#gradient)" d="M18 28a7.63 7.63 0 0 0 3-6c0-3.33-2.33-6-5.5-6S10 18.67 10 22c0 1.5.5 2.5 1.5 3.5.29.27.56.52.83.76L18 28Z"/>
  <defs>
    <linearGradient id="gradient" x1="14" x2="18" y1="16" y2="28" gradientUnits="userSpaceOnUse">
      <stop stop-color="#4c1d95"/>
      <stop offset="1" stop-color="#7c3aed"/>
    </linearGradient>
  </defs>
</svg>